<svg xmlns="http://www.w3.org/2000/svg" xmlns:xlink="http://www.w3.org/1999/xlink" width="116.385" height="127.847" viewBox="0 0 116.385 127.847"><defs><style>
                    .a {
                      clip-path: url(#a);
                    }
                  </style><clipPath id="a"><rect width="116.385" height="127.847"></rect></clipPath></defs><g class="a"><path d="M750.3,2761.667a43.738,43.738,0,0,1,2.616-4.821q1.734-2.131,3.627-4.1a59.727,59.727,0,0,1,8.276-7.108,58.694,58.694,0,0,1,9.428-5.491c1.649-.767,3.326-1.421,5.048-2.075a47.255,47.255,0,0,1,5.4-.9c-1.665.739-3.313,1.422-4.907,2.261s-3.326,1.293-4.935,2.034a58.211,58.211,0,0,0-17.262,12.286,52.108,52.108,0,0,0-3.526,4C752.757,2758.992,751.561,2760.33,750.3,2761.667Z" transform="translate(-747.921 -2720.364)"></path><path d="M811.025,2787.151A29.769,29.769,0,0,1,809.76,2790c-.654.767-1.308,1.55-1.977,2.3a60.125,60.125,0,0,1-9,8.162c-.824.612-1.649,1.18-2.488,1.75a9.289,9.289,0,0,1-2.958.979l2.147-2.2c.824-.54,1.636-1.11,2.433-1.692a59.321,59.321,0,0,0,8.772-7.962c.668-.755,1.309-1.424,1.934-2.263A12.027,12.027,0,0,1,811.025,2787.151Z" transform="translate(-712.124 -2678.802)"></path><path d="M780.053,2736.31l5.29.341,5.275.868c1.707.511,3.37,1.123,5.063,1.663s3.27,1.424,4.905,2.119a59.514,59.514,0,0,1,28.768,30.347c.627,1.664,1.308,3.312,1.863,5s.995,3.427,1.422,5.163l.585,5.3.069,5.3-.824-5.219-1.224-5.077-1.421-5.033c-.541-1.636-1.209-3.243-1.806-4.878a58.117,58.117,0,0,0-28.057-29.607l-4.777-2.062-4.949-1.621-5.061-1.506Z" transform="translate(-723.172 -2721.089)"></path><path d="M808.789,2765.192c.883-.81,1.55-1.592,2.218-2.287a30.429,30.429,0,0,0,1.878-2.5,17.04,17.04,0,0,0,3.015-5.275,14.606,14.606,0,0,0,.7-6.015,15.245,15.245,0,0,0-1.649-5.787l.995.27a15.02,15.02,0,0,0-4.565,3.884,14.029,14.029,0,0,0-2.544,5.4,20.686,20.686,0,0,0-.471,6.071A29.084,29.084,0,0,0,808.789,2765.192Zm0,0a23.756,23.756,0,0,1-1.89-6.156,22.218,22.218,0,0,1,.511-6.5,15.459,15.459,0,0,1,2.845-5.958,16.77,16.77,0,0,1,5.006-4.266l.639-.4.341.669a16.957,16.957,0,0,1,1.848,6.413,16.164,16.164,0,0,1-.782,6.585,18.349,18.349,0,0,1-3.255,5.687,27.5,27.5,0,0,1-2.5,2.147C810.568,2764.156,809.544,2764.682,808.789,2765.192Z" transform="translate(-700.887 -2716.426)"></path><path d="M798.662,2774.47a24.6,24.6,0,0,0,1.678-1.863,18.486,18.486,0,0,0,1.423-1.99,12.8,12.8,0,0,0,2.332-4.067,11.508,11.508,0,0,0,.469-4.608,12.15,12.15,0,0,0-1.266-4.464l.982.284a11.766,11.766,0,0,0-3.513,2.973,11.125,11.125,0,0,0-1.962,4.165,15.626,15.626,0,0,0-.341,4.678A22.757,22.757,0,0,0,798.662,2774.47Zm0,0a12.724,12.724,0,0,1-1.222-9.926,12.191,12.191,0,0,1,2.218-4.694,13.217,13.217,0,0,1,3.953-3.369l.639-.4.343.668a13.234,13.234,0,0,1,1.421,5.063,12.7,12.7,0,0,1-.612,5.2,14.76,14.76,0,0,1-2.574,4.535,21.31,21.31,0,0,1-2.019,1.622C800.086,2773.715,799.2,2774.085,798.662,2774.47Z" transform="translate(-709.075 -2704.643)"></path><path d="M791.474,2739.378c-.427-.869-.9-1.522-1.266-2.147a11.267,11.267,0,0,0-1.423-1.935,13.251,13.251,0,0,0-3.185-3.426,11.452,11.452,0,0,0-4.266-1.892,11.874,11.874,0,0,0-4.678-.114l.555-.866a11.839,11.839,0,0,0,1.806,4.266,10.921,10.921,0,0,0,3.328,3.085,15.964,15.964,0,0,0,4.365,1.735A23.058,23.058,0,0,0,791.474,2739.378Zm0,0a12.642,12.642,0,0,1-9.827-1.779,12.39,12.39,0,0,1-3.825-3.525,12.93,12.93,0,0,1-2.033-4.777l-.2-.726.753-.128a13.085,13.085,0,0,1,5.262.113,12.785,12.785,0,0,1,4.792,2.135,14.807,14.807,0,0,1,3.555,3.81,23.115,23.115,0,0,1,.925,2.4C791.188,2737.8,791.3,2738.724,791.474,2739.378Z" transform="translate(-726.885 -2727.81)"></path><path d="M766.963,2741.271a29.142,29.142,0,0,0-2.319,2.118,25.678,25.678,0,0,0-1.991,2.319,16.369,16.369,0,0,0-3.284,4.962,14.345,14.345,0,0,0-1.081,5.815,15.231,15.231,0,0,0,1.236,5.774l-.967-.341a14.865,14.865,0,0,0,4.707-3.5,13.9,13.9,0,0,0,2.845-5.106,20.618,20.618,0,0,0,.839-5.9A29.657,29.657,0,0,0,766.963,2741.271Zm0,0a23.675,23.675,0,0,1,1.422,6.143,22.416,22.416,0,0,1-.91,6.344,15.5,15.5,0,0,1-3.144,5.687,16.158,16.158,0,0,1-5.176,3.854l-.667.356-.3-.768a16.408,16.408,0,0,1-1.421-6.385,15.446,15.446,0,0,1,1.182-6.4,17.834,17.834,0,0,1,3.568-5.4,27.732,27.732,0,0,1,2.574-1.935C765.143,2742.167,766.181,2741.741,766.963,2741.271Z" transform="translate(-742.546 -2716.962)"></path><path d="M798.539,2801.035a21.56,21.56,0,0,0,.6-4.878,13.332,13.332,0,0,0-.17-4.691,11.378,11.378,0,0,0-1.976-4.266,12.062,12.062,0,0,0-3.412-3.116l.98-.284a11.386,11.386,0,0,0-1.421,4.38,10.866,10.866,0,0,0,.511,4.565,15.66,15.66,0,0,0,2.163,4.167A23.605,23.605,0,0,0,798.539,2801.035Zm0,0a18.38,18.38,0,0,1-3.925-3.213,17.889,17.889,0,0,1-2.359-4.565,12.428,12.428,0,0,1-.584-5.162,13.472,13.472,0,0,1,1.594-4.964l.326-.669.656.385a13.125,13.125,0,0,1,3.9,3.541,12.578,12.578,0,0,1,2.245,4.806,14.578,14.578,0,0,1,.185,5.2,19.934,19.934,0,0,1-.854,2.447A19.715,19.715,0,0,1,798.539,2801.035Z" transform="translate(-713.559 -2682.702)"></path><path d="M755.933,2777.675c.242-.939.313-1.734.441-2.46a20.387,20.387,0,0,0,.141-2.432,12.6,12.6,0,0,0-.17-4.678,11.174,11.174,0,0,0-1.962-4.266,11.874,11.874,0,0,0-3.427-2.985l.98-.286a11.731,11.731,0,0,0-1.422,4.381,11.112,11.112,0,0,0,.526,4.437,16.672,16.672,0,0,0,2.247,4.266A23.246,23.246,0,0,0,755.933,2777.675Zm0,0a12.666,12.666,0,0,1-6.272-7.779,12.517,12.517,0,0,1-.639-5.177,12.923,12.923,0,0,1,1.594-4.947l.326-.668.654.382a13.1,13.1,0,0,1,3.9,3.543,12.871,12.871,0,0,1,2.233,4.747,14.59,14.59,0,0,1,.185,5.207,22.751,22.751,0,0,1-.854,2.445A22.1,22.1,0,0,1,755.933,2777.675Z" transform="translate(-749.022 -2702.131)"></path><path d="M804.257,2794.052c.143-.869.128-1.564.185-2.205a11.216,11.216,0,0,0-.084-2.147,11.741,11.741,0,0,0-.484-4.1,9.886,9.886,0,0,0-2.006-3.541,10.585,10.585,0,0,0-3.213-2.488l.953-.355a10.127,10.127,0,0,0-.925,3.923,9.513,9.513,0,0,0,.767,3.953,13.991,13.991,0,0,0,2.191,3.5A21.394,21.394,0,0,0,804.257,2794.052Zm0,0a15.427,15.427,0,0,1-3.741-2.5,15.979,15.979,0,0,1-2.416-3.882,11.406,11.406,0,0,1-.883-4.55,11.772,11.772,0,0,1,1.068-4.522l.284-.7.669.341a11.937,11.937,0,0,1,3.726,2.845,11.383,11.383,0,0,1,2.3,4.067,13.016,13.016,0,0,1,.54,4.621,16.362,16.362,0,0,1-.625,2.219A21.041,21.041,0,0,1,804.257,2794.052Z" transform="translate(-708.896 -2686.497)"></path><path d="M802.17,2770.935q-.717-.749-1.507-1.424a16.227,16.227,0,0,0-1.621-1.25,10.805,10.805,0,0,0-3.242-2.191,9.4,9.4,0,0,0-3.8-.723,9.8,9.8,0,0,0-3.768.809l.341-.967a9.883,9.883,0,0,0,2.262,3.114,8.98,8.98,0,0,0,3.383,1.82,13.138,13.138,0,0,0,3.883.57A19.814,19.814,0,0,0,802.17,2770.935Zm0,0a14.584,14.584,0,0,1-4.123,1.222,14.951,14.951,0,0,1-4.266-.639,10.256,10.256,0,0,1-3.854-2.2,11.4,11.4,0,0,1-2.63-3.57l-.343-.654.683-.3a11.171,11.171,0,0,1,4.394-.967,10.807,10.807,0,0,1,4.395.839,12.489,12.489,0,0,1,3.682,2.474,16.116,16.116,0,0,1,1.209,1.849C801.672,2769.726,801.914,2770.437,802.17,2770.935Z" transform="translate(-717.432 -2698.206)"></path><path d="M770.828,2739.233a8.443,8.443,0,0,0-1.18-.994,13.325,13.325,0,0,0-1.236-.827,7.726,7.726,0,0,0-2.3-1.52,6.607,6.607,0,0,0-2.674-.484,7.094,7.094,0,0,0-2.643.555l.341-.966a6.777,6.777,0,0,0,1.606,2.161,6.343,6.343,0,0,0,2.346,1.307,9.413,9.413,0,0,0,2.759.4A15.466,15.466,0,0,0,770.828,2739.233Zm0,0a10.27,10.27,0,0,1-2.986,1.095,11.21,11.21,0,0,1-3.2-.468,7.954,7.954,0,0,1-2.843-1.594,8.224,8.224,0,0,1-1.964-2.646l-.355-.668.713-.3a8.377,8.377,0,0,1,3.27-.711,8.213,8.213,0,0,1,3.257.6,9.2,9.2,0,0,1,2.744,1.805,12.882,12.882,0,0,1,.839,1.423C770.529,2738.31,770.672,2738.892,770.828,2739.233Z" transform="translate(-740.283 -2723.058)"></path><path d="M758.737,2798.227a16.532,16.532,0,0,0,.868-1.75,18.763,18.763,0,0,0,.639-1.779,10.192,10.192,0,0,0,1.024-3.44,8.548,8.548,0,0,0-.412-3.528,9.084,9.084,0,0,0-1.706-3.084h1.024a9.028,9.028,0,0,0-2.092,2.845,8.277,8.277,0,0,0-.738,3.425,12.856,12.856,0,0,0,.553,3.556A19.84,19.84,0,0,0,758.737,2798.227Zm0,0a13.607,13.607,0,0,1-2.231-3.257,13.88,13.88,0,0,1-.612-4,9.676,9.676,0,0,1,.867-4.024,10.359,10.359,0,0,1,2.432-3.357l.526-.541.5.585a10.559,10.559,0,0,1,2.033,3.625,10.131,10.131,0,0,1,.469,4.125,11.5,11.5,0,0,1-1.165,3.939,15.806,15.806,0,0,1-1.31,1.563C759.719,2797.458,759.107,2797.814,758.737,2798.227Z" transform="translate(-743.266 -2682.211)"></path><path d="M804.251,2789.619a9.118,9.118,0,0,0,1.52.284,10.708,10.708,0,0,0,1.423.115,7.89,7.89,0,0,0,2.759.2,6.749,6.749,0,0,0,2.588-.9,7.222,7.222,0,0,0,2.019-1.792l.185,1.01a6.847,6.847,0,0,0-2.475-1.1,6.65,6.65,0,0,0-2.687,0,10.056,10.056,0,0,0-2.588,1.024A15.4,15.4,0,0,0,804.251,2789.619Zm0,0a10.165,10.165,0,0,1,2.075-2.418,11.4,11.4,0,0,1,3-1.165,7.751,7.751,0,0,1,3.286,0,8.061,8.061,0,0,1,3.013,1.323l.641.4-.456.612a8.164,8.164,0,0,1-2.488,2.218,7.973,7.973,0,0,1-3.143,1.081,9.358,9.358,0,0,1-3.27-.212,11.458,11.458,0,0,1-1.423-.826A12.5,12.5,0,0,1,804.251,2789.619Z" transform="translate(-703.045 -2679.875)"></path><path d="M817.87,2798.887a13.44,13.44,0,0,0-2.39-6.484,19.616,19.616,0,0,0-4.266-5.347,31.572,31.572,0,0,0-5.688-4.068,41.67,41.67,0,0,1-6.072-3.938,19.527,19.527,0,0,1-6.9-12.6,25.724,25.724,0,0,1,.17-7.31,32.867,32.867,0,0,1,2.531-6.768,39.873,39.873,0,0,0-1.137,6.968,24.4,24.4,0,0,0-.143,6.854,18.037,18.037,0,0,0,6.442,11.745c3.5,2.845,8.248,4.594,11.774,8.049a21.656,21.656,0,0,1,4.594,5.69A12.8,12.8,0,0,1,817.87,2798.887Z" transform="translate(-712.924 -2707.729)"></path><path d="M801.12,2741.363a39.76,39.76,0,0,0-4.493-.1,20.633,20.633,0,0,0-4.266.6,14.6,14.6,0,0,0-4.024,1.522,21.273,21.273,0,0,0-3.641,2.574,10.261,10.261,0,0,1,2.973-3.441,12.358,12.358,0,0,1,4.266-1.991A14.212,14.212,0,0,1,801.12,2741.363Z" transform="translate(-719.311 -2717.922)"></path><path d="M791.95,2745.878v.086a.734.734,0,0,1-.286.476.713.713,0,0,1-.538.134l-4.75-.61a.726.726,0,1,1,.212-1.436l4.75.7A.71.71,0,0,1,791.95,2745.878Z" transform="translate(-718.431 -2714.26)"></path><path d="M788.5,2750.587a.727.727,0,0,1-1.337.4l-2.174-3.384a.755.755,0,0,1,.227-1.01.739.739,0,0,1,1.009.227l2.162,3.371A.668.668,0,0,1,788.5,2750.587Z" transform="translate(-719.151 -2712.628)"></path><path d="M784.418,2745.646a.727.727,0,0,1-.641.711l-3.881.484a.719.719,0,0,1-.539-.141.706.706,0,0,1-.271-.485.738.738,0,0,1,.624-.824l3.882-.484a.754.754,0,0,1,.826.639Z" transform="translate(-723.982 -2713.942)"></path><path d="M784.516,2744.835a.68.68,0,0,1-.284.57.711.711,0,0,1-1.024-.127l-2.674-3.458a.729.729,0,1,1,1.152-.895l2.687,3.456A.758.758,0,0,1,784.516,2744.835Z" transform="translate(-722.9 -2717.484)"></path><path d="M768.167,2828.879a54.686,54.686,0,0,1-8.532-6.684,43.884,43.884,0,0,1-6.5-8.745,23.359,23.359,0,0,1-3.07-10.58,31.882,31.882,0,0,1,1.734-10.894,38.4,38.4,0,0,1,5.275-9.569,25.6,25.6,0,0,0,4.75-9.271,22.612,22.612,0,0,0-.528-10.31,14.528,14.528,0,0,0-5.318-8.831,14.8,14.8,0,0,1,6.726,8.431,24.074,24.074,0,0,1,.54,11.022c-.753,3.725-2.944,6.867-4.962,9.783a36.9,36.9,0,0,0-5.105,9.228,30.311,30.311,0,0,0-1.651,10.323,22.112,22.112,0,0,0,2.845,9.956,42.227,42.227,0,0,0,6.27,8.531A65.871,65.871,0,0,0,768.167,2828.879Z" transform="translate(-748.117 -2706.379)"></path><path d="M787.345,2785.3a.771.771,0,0,1-.3.6,65.783,65.783,0,0,1-15.942,8.433.726.726,0,0,1-.938-.412,73.159,73.159,0,0,1-4-23.805.726.726,0,1,1,1.423,0,67.928,67.928,0,0,0,3.654,22.567,63.98,63.98,0,0,0,14.9-7.992.728.728,0,0,1,1.024.158A.807.807,0,0,1,787.345,2785.3Z" transform="translate(-734.73 -2693.698)"></path><path d="M801.407,2771.62a43.719,43.719,0,0,1-.81,8.532.726.726,0,0,1-1.423-.284c2.845-14.562-3.042-28.355-4.422-31.285-11.377,3.982-19.539,10.438-24.373,19.17a.728.728,0,0,1-1,.284.755.755,0,0,1-.284-.995c5.09-9.272,13.78-16.028,25.824-20.166a.743.743,0,0,1,.883.355A58.969,58.969,0,0,1,801.407,2771.62Z" transform="translate(-732.354 -2712.33)"></path><path d="M792.814,2749.484c-2.532,4.409-4.836,8.932-7.025,13.509s-4.266,9.173-6.144,13.894-3.726,9.428-5.362,14.22-3.128,9.655-4.649,14.506a136.347,136.347,0,0,1,3.583-14.847c1.422-4.905,3.228-9.669,5.076-14.434a131,131,0,0,1,6.5-13.85A103.377,103.377,0,0,1,792.814,2749.484Z" transform="translate(-731.837 -2710.131)"></path><path d="M782.452,2774.334a22.085,22.085,0,0,1-4.806,6.072,22.668,22.668,0,0,1-6.528,4.125c1.779-1.921,3.74-3.471,5.561-5.221A68.068,68.068,0,0,1,782.452,2774.334Z" transform="translate(-730.604 -2689.462)"></path><path d="M783.389,2752.333a22.313,22.313,0,0,1,1.18,7.907,24.3,24.3,0,0,1-1.421,7.849c-.214-2.687,0-5.275,0-7.878S783.246,2755.022,783.389,2752.333Z" transform="translate(-720.677 -2707.762)"></path><path d="M769.695,2769.607c.143,2.7-.1,5.289-.113,7.906a62.412,62.412,0,0,1-.5,7.906,24.432,24.432,0,0,1-.967-7.963A24.853,24.853,0,0,1,769.695,2769.607Z" transform="translate(-733.12 -2693.394)"></path><path d="M785.622,2750.672c-2.174,2.573-4.38,4.991-6.428,7.594-1.08,1.251-2.09,2.488-3.141,3.909s-2.048,2.6-3.158,3.883a32.67,32.67,0,0,1,5.149-8.66,41.984,41.984,0,0,1,3.511-3.753A22.145,22.145,0,0,1,785.622,2750.672Z" transform="translate(-729.125 -2709.143)"></path><path d="M783.406,2760.415a38.133,38.133,0,0,1-1.962,9.953,23.935,23.935,0,0,1-5.219,8.717,85.782,85.782,0,0,0,3.852-9.215C781.26,2766.87,782.069,2763.558,783.406,2760.415Z" transform="translate(-726.355 -2701.039)"></path><path d="M801.541,2828.926a.74.74,0,0,1-1.422.256c-.412-1.1-10.168-27.218-6.371-43.372,2.845-12.2-2.845-19.739-4.592-21.758-2.092-2.346-4.068-3.3-5.021-3.185-.2,0-.284,0-.284.085a7.224,7.224,0,0,0,.711,2.844c1.18,3.227,2.973,8.091-.385,12.613l-.126.186c-5.149,6.94-6.072,8.191-5.689,16.595a.738.738,0,0,1-.711.753.725.725,0,0,1-.753-.7c-.313-8.917.9-10.58,6.043-17.519l.143-.2c2.843-3.882,1.308-8.121.185-11.234-.683-1.835-1.152-3.156-.6-4.066a1.716,1.716,0,0,1,1.422-.783c1.678-.2,4.1,1.209,6.285,3.669,1.92,2.147,7.95,10.167,4.92,23.051-3.81,15.656,6.087,42.234,6.186,42.5A.536.536,0,0,1,801.541,2828.926Z" transform="translate(-725.833 -2701.861)"></path><path d="M781.13,2762.115v.5c-.2,1.2-1.251,3.186-6.087,2.987a.74.74,0,0,1-.7-.754.725.725,0,0,1,.753-.71c2.559.113,4.266-.469,4.535-1.58a1.79,1.79,0,0,0-.439-1.62c-.782-.228-3.684-1.052-6.5-1.622-.868-.185-1.734-.326-2.5-.425a12.17,12.17,0,0,0-1.651-.128c-.9,0-2.033.141-2.389.81-.5.925.4,2.63.753,3.158a.727.727,0,1,1-1.207.81c-.185-.284-1.821-2.845-.839-4.65.553-1.053,1.8-1.593,3.682-1.593a15.394,15.394,0,0,1,1.835.142c.81.1,1.705.255,2.6.439,2.845.585,5.83,1.423,6.655,1.665A2.757,2.757,0,0,1,781.13,2762.115Z" transform="translate(-736.066 -2703.636)"></path><path d="M782.651,2765.962a1.946,1.946,0,0,1-.271.967,6.083,6.083,0,0,1-5.488,2.332.711.711,0,1,1,.057-1.421,5.136,5.136,0,0,0,3.953-1.323c.269-.3.3-.5.284-.525a10.4,10.4,0,0,0-3.64-2.277,25.679,25.679,0,0,0-2.973-1.138,18.266,18.266,0,0,0-8.049-.794,5.21,5.21,0,0,0-1.606.5,1.416,1.416,0,0,0-.625.584c-.456.809.44,2.118.839,2.631a.732.732,0,0,1-.671,1.181.729.729,0,0,1-.482-.285c-1.266-1.636-1.594-3.1-.967-4.267a3.025,3.025,0,0,1,1.194-1.152,7.1,7.1,0,0,1,2.063-.654,19.9,19.9,0,0,1,8.73.839,27.873,27.873,0,0,1,3.185,1.167,11.011,11.011,0,0,1,4.266,2.843A1.429,1.429,0,0,1,782.651,2765.962Z" transform="translate(-737.602 -2701.253)"></path><path d="M768.5,2763.792h0a.707.707,0,0,1-.218.512.7.7,0,0,1-.522.2h-1.991c-1.236,0-2.048.371-2.26.869-.37.868.711,2.546,1.281,3.213a.743.743,0,0,1-.086,1.039.726.726,0,0,1-1.024-.085c-.242-.286-2.347-2.845-1.508-4.75.456-1.068,1.65-1.65,3.526-1.749h2.092a.713.713,0,0,1,.711.752Z" transform="translate(-738.209 -2698.856)"></path><path d="M777.628,2768.6a1.664,1.664,0,0,1-.071.511c-.427,1.507-2.716,2.632-5.319,2.588a.8.8,0,0,1-.725-.738.728.728,0,0,1,.74-.712c2.134,0,3.711-.881,3.911-1.535,0-.086.086-.328-.454-.654l-.229-.128a21.783,21.783,0,0,0-8.417-3.285.716.716,0,0,1-.6-.826.739.739,0,0,1,.839-.61,23.188,23.188,0,0,1,8.946,3.469l.213.129A2.071,2.071,0,0,1,777.628,2768.6Z" transform="translate(-734.483 -2698.719)"></path><path d="M770.229,2788.706c0,4.138-1.194,9.072-2.517,14.6-.626,2.573-1.28,5.248-1.85,8.049a.752.752,0,0,1-.866.568.768.768,0,0,1-.456-.924c.584-2.844,1.238-5.5,1.863-8.091,1.678-6.968,3.128-12.982,2.191-17.392-.3-1.337-.782-3.1-1.508-5.4a.738.738,0,0,1,.469-.923.754.754,0,0,1,.925.482c.74,2.346,1.237,4.167,1.535,5.546A16.314,16.314,0,0,1,770.229,2788.706Z" transform="translate(-736.1 -2685.446)"></path><path d="M778.3,2770.614c0,.968-.54,2.262-3.173,2.845a15.567,15.567,0,0,1-3.64.227h-2.033a.739.739,0,0,1,0-1.422h2.09a13.522,13.522,0,0,0,3.284-.2c2.191-.44,2.035-1.322,1.978-1.621s-.8-1.123-3.143-1.92c-3.953-1.338-9.031-1.579-10.252-.483a.581.581,0,0,0-.185.641c.412,1.791,1.819,5.8,3.47,10.438l1.222,3.44a.726.726,0,0,1-.455.924.713.713,0,0,1-.925-.441l-1.209-3.44c-1.663-4.678-3.1-8.732-3.526-10.609a2.078,2.078,0,0,1,.641-2.048c1.989-1.791,8.061-1.037,11.688.2,2.517.854,3.9,1.876,4.11,3.043A3.071,3.071,0,0,1,778.3,2770.614Z" transform="translate(-738.399 -2696.493)"></path><path d="M811.561,2787.642a19.546,19.546,0,0,1-4.765,1.421,30.7,30.7,0,0,1-4.905.329,7.78,7.78,0,0,1,2.26-1.167,20.749,20.749,0,0,1,2.418-.611A13.738,13.738,0,0,1,811.561,2787.642Z" transform="translate(-705.008 -2678.595)"></path><path d="M800.542,2760.415a68.152,68.152,0,0,0-2.843,13.068" transform="translate(-708.495 -2701.039)"></path><path d="M800.749,2760.415c.1.624.128,1.208.2,1.792l-.427,1.591c-.284,1.068-.526,2.149-.753,3.229l-.612,3.27-.256,1.636c-.326.513-.583,1.039-.953,1.55-.212-.6-.328-1.18-.5-1.763l.271-1.665.568-3.326c.227-1.1.469-2.19.755-3.286l.44-1.634A12.458,12.458,0,0,1,800.749,2760.415Z" transform="translate(-708.702 -2701.039)"></path><path d="M791.791,2766.268c.7,0,1.323.185,1.976.241a6.8,6.8,0,0,1,1.707.726,27.778,27.778,0,0,0,3.469,1.238,22.262,22.262,0,0,0,3.612.682l1.876.313a4.44,4.44,0,0,1,1.707,1.18,12.625,12.625,0,0,1-1.976.257l-1.835-.371a26.092,26.092,0,0,1-3.782-.726,31.207,31.207,0,0,1-3.64-1.292,11.471,11.471,0,0,1-1.735-.824A15.166,15.166,0,0,1,791.791,2766.268Z" transform="translate(-713.409 -2696.171)"></path><path d="M759.69,2755.7a18.042,18.042,0,0,1,.669-4.466,41.152,41.152,0,0,1,1.421-4.266,43.01,43.01,0,0,1,2.033-4.025,26.615,26.615,0,0,1,2.574-3.71c-.923,2.845-2.189,5.546-3.27,8.29-.627,1.337-1.152,2.717-1.735,4.066Z" transform="translate(-740.109 -2718.661)"></path><path d="M762.368,2735.448a38.466,38.466,0,0,1,4.92,1.707c.755.386,1.564.669,2.334,1.039s1.564.711,2.359,1.166a10.545,10.545,0,0,1-5.261-.866A12.142,12.142,0,0,1,762.368,2735.448Z" transform="translate(-737.881 -2721.805)"></path><path d="M750.25,2759.662a29.885,29.885,0,0,1,4.266,10.138l.81,5.375c.3,1.778.641,3.542,1.053,5.319a20.446,20.446,0,0,1-2.147-5.078,50.357,50.357,0,0,1-1.167-5.331C752.426,2766.588,751.232,2763.23,750.25,2759.662Z" transform="translate(-747.96 -2701.665)"></path><path d="M758.052,2788.285a30.708,30.708,0,0,1,.469,4.407v2.191a17.962,17.962,0,0,1-.156,2.26,8.538,8.538,0,0,1-1.31-4.365A8.627,8.627,0,0,1,758.052,2788.285Z" transform="translate(-742.31 -2677.859)"></path><path d="M776.086,2728.733a62.333,62.333,0,0,1,11.377,6.684,52.258,52.258,0,0,1,5.061,4.266,12.933,12.933,0,0,1,3.627,5.6,18.328,18.328,0,0,0-4.352-4.68c-1.678-1.422-3.4-2.715-5.176-3.98C783.168,2733.937,779.541,2731.507,776.086,2728.733Z" transform="translate(-726.471 -2727.39)"></path><path d="M811.964,2748.554a59,59,0,0,1-1.85,8.275,66.863,66.863,0,0,1-2.843,7.906,34.91,34.91,0,0,1,1.507-8.333A39.146,39.146,0,0,1,811.964,2748.554Z" transform="translate(-700.534 -2710.906)"></path><path d="M801.756,2796.641c-.271-.655-.427-1.295-.627-1.934v-1.878a36.167,36.167,0,0,0-.2-3.725,21.91,21.91,0,0,0-.641-3.64,16.189,16.189,0,0,0-.568-1.721,9.29,9.29,0,0,0-.2-1.947,6.409,6.409,0,0,1,1.594,1.422,18.785,18.785,0,0,1,.625,1.905,22.85,22.85,0,0,1,.683,3.783,35.173,35.173,0,0,1,.2,3.883v1.934C802.254,2795.4,802.1,2796.015,801.756,2796.641Z" transform="translate(-706.978 -2683.256)"></path><path d="M794.21,2787.454a4.154,4.154,0,0,1,1.421,1.308c.143.57.3,1.124.4,1.692.229,1.123.385,2.248.513,3.37s.227,2.261.313,3.385l.1,1.678c-.213.567-.37,1.137-.64,1.72-.328-.555-.54-1.1-.811-1.636l-.17-1.662c-.072-1.109-.17-2.219-.3-3.314s-.271-2.189-.484-3.257c-.113-.526-.227-1.051-.384-1.551A5.872,5.872,0,0,0,794.21,2787.454Z" transform="translate(-711.433 -2678.549)"></path></g></svg>