<?xml version="1.0" encoding="utf-8"?>
<!-- Generator: Adobe Illustrator 26.3.1, SVG Export Plug-In . SVG Version: 6.00 Build 0)  -->
<svg version="1.1" id="Camada_1" xmlns="http://www.w3.org/2000/svg" xmlns:xlink="http://www.w3.org/1999/xlink" x="0px" y="0px"
	 viewBox="0 0 618.98 500" style="enable-background:new 0 0 618.98 500;" xml:space="preserve">
<style type="text/css">
	.st0{fill:#020203;}
	.st1{fill:none;stroke:#020203;stroke-width:20.8636;stroke-linecap:round;stroke-linejoin:round;stroke-miterlimit:10;}
	.st2{fill:#020303;}
	.st3{fill:none;stroke:#020303;stroke-width:16.6909;stroke-linecap:round;stroke-linejoin:round;stroke-miterlimit:10;}
	.st4{fill:none;stroke:#020303;stroke-width:14.3893;stroke-linecap:round;stroke-linejoin:round;stroke-miterlimit:10;}
</style>
<g>
	<g>
		<g>
			<g>
				<path class="st0" d="M433.17,311.33c-1.29,57.42-2.12,120.99-2.69,178.61c0.03,3.57-2.87,6.5-6.45,6.45
					c0,0-50.91-0.41-50.91-0.41c-118.44-0.58-238.03-1.77-356.38,1.93c-4.44,0.13-8.08-3.54-7.97-7.97
					C5.89,396.88,5.88,303.79,6.04,210.7c0.1-31.06,0.1-62.13,0.3-93.19c0.04-5.72,4.68-10.32,10.4-10.28
					c113.65,0.39,292.36,1.18,407.32,1.15c5.1,0.01,9.22,4.15,9.21,9.24c0,0-0.1,53.5-0.1,53.5c-0.01,5.05-4.11,9.14-9.16,9.13
					c-5.05-0.01-9.14-4.08-9.13-9.13c0,0-0.1-53.5-0.1-53.5s9.24,9.24,9.24,9.24c-115.42,0.5-293.17,0.25-407.29,1.15
					c0,0,10.4-10.4,10.4-10.4c0.37,124.11,1.31,248.25-2.42,372.32c0,0-7.97-7.97-7.97-7.97c33.94,0.91,67.88,1.81,101.82,2.2
					c100.76,0.75,204.59,0.13,305.47-0.68c0,0-6.45,6.45-6.45,6.45c-0.44-32.3-0.83-79.48-1.39-111.63
					c-0.48-21.67-0.72-45.44-1.3-66.98c-0.11-5.05,3.9-9.23,8.95-9.34C429.02,301.87,433.29,306.15,433.17,311.33L433.17,311.33z"/>
			</g>
		</g>
		<g>
			<polyline class="st1" points="16.74,106.87 16.74,12.9 424.03,12.9 424.03,117.62 			"/>
		</g>
		<g>
			<path class="st0" d="M70.72,181.26l258.95-3.14c5.32-0.06,9.69,4.2,9.76,9.52c0.06,5.32-4.2,9.69-9.52,9.76
				c-0.21,0.01-258.95-3.14-259.19-3.14C62.3,193.9,62.12,181.7,70.72,181.26L70.72,181.26z"/>
		</g>
		<g>
			<path class="st0" d="M69.86,253.54c0,0,157.01-3.14,157.01-3.14c5.32-0.11,9.73,4.12,9.83,9.45s-4.12,9.73-9.45,9.83
				c-0.04,0.06-157.24-3.17-157.39-3.14C61.46,266.13,61.38,254,69.86,253.54L69.86,253.54z"/>
		</g>
	</g>
	<g>
		<g>
			<path class="st2" d="M554.75,188.08C503.37,239.46,398,344.86,347.8,395.05c-3.53,3.49-7.83,6.18-12.51,7.84
				c-4.37,1.56-9.07,2.21-13.7,1.91c0,0-0.7-0.04-0.7-0.04l-22.46-1.44c-0.98-0.08-3.35-0.19-4.31-0.29
				c-17.31-1.28-30.91-15.6-31.52-32.91c-0.14-1.07-1.46-23.59-1.62-25.27c-0.39-4.86,0.22-9.81,1.87-14.41
				c1.66-4.67,4.36-8.98,7.84-12.51c10.36-10.36,68.01-68.03,79.61-79.63c0,0,127.32-127.34,127.32-127.34
				c3.26-3.26,8.54-3.26,11.8,0c3.26,3.26,3.26,8.54,0,11.8c0,0-127.34,127.33-127.34,127.33c-11.92,11.9-68.97,68.97-79.54,79.54
				c-1.79,1.81-3.17,4.01-4.02,6.41c-0.81,2.25-1.13,4.67-0.98,7.05c0,0,0.04,0.7,0.04,0.7l1.44,22.46
				c0.08,0.85,0.18,3.27,0.28,4.11c0.49,7.68,6.59,14.53,14.19,15.83c0.52,0.14,1.35,0.19,1.89,0.26c0.13,0.02,0.46,0.05,0.6,0.05
				c3.13,0.16,23.74,1.57,27.17,1.73c4.77,0.22,9.58-1.65,12.96-5.01c0,0,15.88-15.87,15.88-15.87
				c40.63-40.62,149.06-149.05,191.01-190.99C550.86,168.97,562.31,179.74,554.75,188.08L554.75,188.08z"/>
		</g>
		<g>
			<path class="st2" d="M245.35,408.64l21.1-24.36c3.85-4.44,10.56-4.92,15-1.07c4.88,4.16,4.87,11.91,0,16.07
				c0,0-24.36,21.1-24.36,21.1C249.09,426.93,238.83,416.59,245.35,408.64L245.35,408.64z"/>
		</g>
		<path class="st3" d="M545.86,185.23l-65.36-65.36l55.55-55.55c8.05-8.05,21.09-8.05,29.14,0l36.22,36.22
			c8.05,8.05,8.05,21.09,0,29.14L545.86,185.23z"/>
		<path class="st4" d="M569.63,163.31c15.22,15.22,15.22,39.91,0,55.13L458.5,329.57"/>
	</g>
</g>
</svg>
